<svg width="77" height="79" viewBox="0 0 77 79" fill="none" xmlns="http://www.w3.org/2000/svg">
<path d="M29.5 50V50C32.7 53.84 34.2334 58.7991 33.7595 63.7751L33.5 66.5L32 76.5L30.5 79H15L29.5 50Z" fill="#000000" fill-opacity="1"/>
<path d="M32.947 51.9622C32.3268 50.3498 31.2891 48.9312 29.9401 47.852V47.852C27.9944 46.2955 25.7966 45.0834 23.442 44.2684L15.1827 41.4094C14.3994 41.1382 13.665 40.7423 13.008 40.2369L11.5416 39.1089C8.93584 37.1045 7.14473 34.2237 6.5 31V31L7.28501 31.471C8.40721 32.1443 9.6913 32.5 11 32.5V32.5L7.756 29.4588C4.7493 26.64 3.1839 22.6092 3.5 18.5V18.5L4.14812 20.1203C5.00085 22.2521 6.79229 23.8692 9 24.5V24.5L8.85595 24.3221C3.79262 18.0674 2.97115 9.38718 6.77125 2.29367L8 0L7.07843 3.81792C5.5614 10.1028 8.49781 16.6165 14.2118 19.6416L14.7787 19.9417C19.1818 22.2727 24.1212 23.4029 29.0999 23.2185V23.2185C32.7756 23.0824 36.267 24.8301 38.3607 27.8544L39.5 29.5L46 17L62.5 50L77 79H61.5L46 48.5L33.5 73.5L34.667 64.5531C34.8884 62.8559 34.9283 61.1399 34.7862 59.4342L34.6999 58.3982C34.5673 56.8075 34.2091 55.2437 33.6361 53.7539L32.947 51.9622Z" fill="#9A3535" fill-opacity="1"/>
</svg>
