<svg width="697" height="669" viewBox="0 0 697 669" fill="none" xmlns="http://www.w3.org/2000/svg">
<g filter="url(#filter0_d_2_4)">
<path d="M342.612 912.523C382.124 904.094 419.622 874.97 446.751 836.777C454.81 825.386 462.109 813.214 468.573 800.385C483.823 770.217 494.609 736.622 501.942 702.142C508.091 673.063 511.877 643.361 513.243 613.48C514.51 585.966 513.799 558.622 513.924 531.592C514.045 494.479 515.772 457.915 526.009 422.868C531.456 404.557 538.916 387.211 548.177 371.325C566.717 339.24 591.491 312.227 616.805 287.697C625.133 279.664 633.508 271.741 641.885 263.775C671.763 235.288 701.408 206.061 723.16 168.481C726.179 163.269 729.011 157.859 731.658 152.252C753.237 106.306 760.741 47.9832 739.331 4.13586L779.325 14.9009C809.877 59.6238 805.153 129.251 782.428 181.874C759.703 234.497 722.449 275.045 688.272 317.425C654.096 359.805 621.162 408.075 611.285 466.21C600.466 529.958 619.135 594.494 620.448 659.272C621.772 724.24 605.54 788.382 574.307 841.595C543.074 894.808 498.617 934.067 447.937 953.187L342.612 912.523Z" fill="#5238DF"/>
<path d="M237.278 871.848C277.622 869.591 316.916 838.375 342.598 797.728C350.214 785.606 356.962 772.701 362.767 759.164C376.479 727.449 385.504 692.557 392.418 657.338C398.163 627.684 402.685 597.72 405.965 567.565C409.056 539.808 411.262 512.322 414.715 485.367C419.377 448.499 426.468 412.572 440.677 379.426C448.187 362.024 457.463 345.843 468.277 331.283C490.12 301.803 517.428 278.649 545.273 257.858C554.416 251.051 563.552 244.396 572.75 237.711C605.431 213.857 638.2 189.138 663.889 155.152C667.475 150.419 670.898 145.482 674.159 140.341C700.716 98.2503 714.913 41.2408 699.351 -6.574L739.354 4.1915C760.774 48.0393 753.269 106.362 731.681 152.307C729.047 157.908 726.214 163.318 723.184 168.536C701.408 206.061 671.763 235.288 641.852 263.719C633.475 271.685 625.065 279.606 616.773 287.642C591.459 312.171 566.685 339.184 548.145 371.269C538.884 387.155 531.423 404.501 525.977 422.812C515.74 457.859 514.013 494.423 513.892 531.537C513.767 558.566 514.478 585.9 513.21 613.424C511.844 643.305 508.059 673.007 501.91 702.086C494.574 736.62 483.788 770.215 468.541 800.329C462.076 813.158 454.778 825.33 446.718 836.721C419.624 874.915 382.128 904.008 342.58 912.467L237.278 871.848Z" fill="#750C9B"/>
<path d="M131.909 831.182C173.084 835.097 214.176 801.757 238.446 758.679C245.624 745.822 251.822 732.187 256.96 717.954C269.127 684.681 276.381 648.49 282.891 612.599C288.362 582.325 293.426 551.77 298.684 521.714C303.598 493.715 308.732 466.065 315.512 439.206C324.714 402.574 337.152 367.293 355.343 336.027C364.919 319.584 376.029 304.571 388.436 291.309C413.564 264.412 443.432 245.128 473.808 228.076C483.767 222.507 493.714 217.154 503.666 211.715C539.143 192.417 574.982 172.225 604.636 141.814C608.783 137.559 612.797 133.094 616.678 128.42C648.188 90.1719 669.084 34.4984 659.31 -17.2764L699.313 -6.51087C714.909 41.3058 700.713 98.3044 674.121 140.404C670.866 145.538 667.442 150.475 663.85 155.215C638.161 189.201 605.427 213.922 572.712 237.774C563.575 244.462 554.343 251.112 545.235 257.921C517.39 278.712 490.082 301.866 468.239 331.346C457.425 345.906 448.148 362.087 440.639 379.489C426.43 412.635 419.338 448.562 414.677 485.43C411.222 512.417 409.017 539.872 405.927 567.628C402.646 597.784 398.125 627.747 392.38 657.401C385.466 692.62 376.441 727.512 362.728 759.227C356.924 772.764 350.175 785.669 342.56 797.791C316.878 838.438 277.583 869.665 237.24 871.911L131.909 831.182Z" fill="#EB20DE"/>
<path d="M26.6096 790.52C68.6256 800.607 111.505 765.186 134.373 719.634C157.242 674.082 164.77 620.063 173.434 567.852C183.339 508.165 195.441 448.493 216.37 393.039C237.299 337.584 267.687 286.184 308.524 251.331C346.288 219.101 390.91 202.483 434.546 185.706C478.182 168.928 522.658 150.879 559.162 116.497C595.667 82.1158 623.264 27.7674 619.307 -28.0418L659.31 -17.2763C669.084 34.5093 648.187 90.1828 616.66 128.43C612.784 133.112 608.77 137.576 604.617 141.824C574.964 172.235 539.124 192.427 503.647 211.725C493.698 217.121 483.696 222.514 473.79 228.086C443.397 245.126 413.564 264.412 388.436 291.309C376.032 304.572 364.925 319.585 355.351 336.028C337.161 367.294 324.723 402.574 315.52 439.207C308.742 466.022 303.608 493.694 298.693 521.714C293.435 551.771 288.371 582.326 282.9 612.599C276.408 648.492 269.135 684.692 256.968 717.954C251.851 732.185 245.673 745.821 238.516 758.683C214.208 801.824 173.119 835.099 131.909 831.182L26.6096 790.52Z" fill="url(#paint0_linear_2_4)"/>
<g style="mix-blend-mode:overlay" opacity="0.8">
<g style="mix-blend-mode:overlay">
<path d="M342.612 912.523C382.124 904.094 419.622 874.97 446.751 836.777C454.81 825.386 462.109 813.214 468.573 800.385C483.823 770.217 494.609 736.622 501.942 702.142C508.091 673.063 511.877 643.361 513.243 613.48C514.51 585.966 513.799 558.622 513.924 531.592C514.045 494.479 515.772 457.915 526.009 422.868C531.456 404.557 538.916 387.211 548.177 371.325C566.717 339.24 591.491 312.227 616.805 287.697C625.133 279.664 633.508 271.741 641.885 263.775C671.763 235.288 701.408 206.061 723.16 168.481C726.179 163.269 729.011 157.859 731.658 152.252C753.237 106.306 760.741 47.9832 739.331 4.13586L779.325 14.9009C809.877 59.6238 805.153 129.251 782.428 181.874C759.703 234.497 722.449 275.045 688.272 317.425C654.096 359.805 621.162 408.075 611.285 466.21C600.466 529.958 619.135 594.494 620.448 659.272C621.772 724.24 605.54 788.382 574.307 841.595C543.074 894.808 498.617 934.067 447.937 953.187L342.612 912.523Z" fill="white"/>
</g>
<g style="mix-blend-mode:overlay">
<path d="M237.278 871.848C277.622 869.591 316.916 838.375 342.598 797.728C350.214 785.606 356.962 772.701 362.767 759.164C376.479 727.449 385.504 692.557 392.418 657.338C398.163 627.684 402.685 597.72 405.965 567.565C409.056 539.808 411.262 512.322 414.715 485.367C419.377 448.499 426.468 412.572 440.677 379.426C448.187 362.024 457.463 345.843 468.277 331.283C490.12 301.803 517.428 278.649 545.273 257.858C554.416 251.051 563.552 244.396 572.75 237.711C605.431 213.857 638.2 189.138 663.889 155.152C667.475 150.419 670.898 145.482 674.159 140.341C700.716 98.2503 714.913 41.2408 699.351 -6.574L739.354 4.1915C760.774 48.0393 753.269 106.362 731.681 152.307C729.047 157.908 726.214 163.318 723.184 168.536C701.408 206.061 671.763 235.288 641.852 263.719C633.475 271.685 625.065 279.606 616.773 287.642C591.459 312.171 566.685 339.184 548.145 371.269C538.884 387.155 531.423 404.501 525.977 422.812C515.74 457.859 514.013 494.423 513.892 531.537C513.767 558.566 514.478 585.9 513.21 613.424C511.844 643.305 508.059 673.007 501.91 702.086C494.574 736.62 483.788 770.215 468.541 800.329C462.076 813.158 454.778 825.33 446.718 836.721C419.624 874.915 382.128 904.008 342.58 912.467L237.278 871.848Z" fill="white"/>
</g>
<g style="mix-blend-mode:overlay">
<path d="M131.909 831.182C173.084 835.097 214.176 801.757 238.446 758.679C245.624 745.822 251.822 732.187 256.96 717.954C269.127 684.681 276.381 648.49 282.891 612.599C288.362 582.325 293.426 551.77 298.684 521.714C303.598 493.715 308.732 466.065 315.512 439.206C324.714 402.574 337.152 367.293 355.343 336.027C364.919 319.584 376.029 304.571 388.436 291.309C413.564 264.412 443.432 245.128 473.808 228.076C483.767 222.507 493.714 217.154 503.666 211.715C539.143 192.417 574.982 172.225 604.636 141.814C608.783 137.559 612.797 133.094 616.678 128.42C648.188 90.1719 669.084 34.4984 659.31 -17.2764L699.313 -6.51087C714.909 41.3058 700.713 98.3044 674.121 140.404C670.866 145.538 667.442 150.475 663.85 155.215C638.161 189.201 605.427 213.922 572.712 237.774C563.575 244.462 554.343 251.112 545.235 257.921C517.39 278.712 490.082 301.866 468.239 331.346C457.425 345.906 448.148 362.087 440.639 379.489C426.43 412.635 419.338 448.562 414.677 485.43C411.222 512.417 409.017 539.872 405.927 567.628C402.646 597.784 398.125 627.747 392.38 657.401C385.466 692.62 376.441 727.512 362.728 759.227C356.924 772.764 350.175 785.669 342.56 797.791C316.878 838.438 277.583 869.665 237.24 871.911L131.909 831.182Z" fill="white"/>
</g>
<g style="mix-blend-mode:overlay">
<path d="M26.6096 790.52C68.6256 800.607 111.505 765.186 134.373 719.634C157.242 674.082 164.77 620.063 173.434 567.852C183.339 508.165 195.441 448.493 216.37 393.039C237.299 337.584 267.687 286.184 308.524 251.331C346.288 219.101 390.91 202.483 434.546 185.706C478.182 168.928 522.658 150.879 559.162 116.497C595.667 82.1158 623.264 27.7674 619.307 -28.0418L659.31 -17.2763C669.084 34.5093 648.187 90.1828 616.66 128.43C612.784 133.112 608.77 137.576 604.617 141.824C574.964 172.235 539.124 192.427 503.647 211.725C493.698 217.121 483.696 222.514 473.79 228.086C443.397 245.126 413.564 264.412 388.436 291.309C376.032 304.572 364.925 319.585 355.351 336.028C337.161 367.294 324.723 402.574 315.52 439.207C308.742 466.022 303.608 493.694 298.693 521.714C293.435 551.771 288.371 582.326 282.9 612.599C276.408 648.492 269.135 684.692 256.968 717.954C251.851 732.185 245.673 745.821 238.516 758.683C214.208 801.824 173.119 835.099 131.909 831.182L26.6096 790.52Z" fill="white"/>
</g>
</g>
</g>
<defs>
<filter id="filter0_d_2_4" x="0.602676" y="-39.1876" width="826.264" height="1033.24" filterUnits="userSpaceOnUse" color-interpolation-filters="sRGB">
<feFlood flood-opacity="0" result="BackgroundImageFix"/>
<feColorMatrix in="SourceAlpha" type="matrix" values="0 0 0 0 0 0 0 0 0 0 0 0 0 0 0 0 0 0 127 0" result="hardAlpha"/>
<feOffset dy="14.8611"/>
<feGaussianBlur stdDeviation="13.0035"/>
<feComposite in2="hardAlpha" operator="out"/>
<feColorMatrix type="matrix" values="0 0 0 0 0 0 0 0 0 0 0 0 0 0 0 0 0 0 0.5 0"/>
<feBlend mode="normal" in2="BackgroundImageFix" result="effect1_dropShadow_2_4"/>
<feBlend mode="normal" in="SourceGraphic" in2="effect1_dropShadow_2_4" result="shape"/>
</filter>
<linearGradient id="paint0_linear_2_4" x1="589.963" y1="-134.818" x2="21.0101" y2="728.902" gradientUnits="userSpaceOnUse">
<stop offset="0.12" stop-color="#FC678E"/>
<stop offset="0.15" stop-color="#FC618A"/>
<stop offset="0.19" stop-color="#FC507D"/>
<stop offset="0.23" stop-color="#FB3469"/>
<stop offset="0.31" stop-color="#FB3066"/>
<stop offset="0.38" stop-color="#FB245D"/>
<stop offset="0.45" stop-color="#FA114F"/>
<stop offset="0.5" stop-color="#FA0042"/>
<stop offset="0.77" stop-color="#FB3368"/>
<stop offset="0.83" stop-color="#FB2D64"/>
<stop offset="0.91" stop-color="#FB1D57"/>
<stop offset="0.99" stop-color="#FA0243"/>
<stop offset="1" stop-color="#FA0042"/>
</linearGradient>
</defs>
</svg>
