<svg width="1905" height="1164" viewBox="0 0 1905 1164" fill="none" xmlns="http://www.w3.org/2000/svg">
<path d="M3141.26 4671.52C2876.24 4659.75 2602.72 4515.17 2387 4302.44C2322.87 4238.96 2262.86 4169.75 2207.57 4095.51C2077.25 3920.99 1972.3 3720.15 1888.83 3510.09C1818.66 3332.9 1763.17 3149.29 1723.18 2962.02C1686.3 2789.6 1662.43 2616.16 1633.46 2445.59C1594.01 2211.34 1544.72 1982.24 1441.82 1771.65C1387.43 1661.73 1320.98 1560.01 1244.37 1469.4C1090.71 1286.23 901.908 1141.63 712.195 1013.28C649.82 971.286 587.255 930.041 524.631 888.524C301.189 739.97 78.4947 586.497 -101.719 371.994C-126.724 342.248 -150.728 311.057 -173.732 278.419C-361.537 10.9057 -470.961 -349.547 -377.787 -648.923L-625.938 -538.972C-777.48 -224.475 -674.317 210.285 -472.124 518.769C-269.932 827.253 13.9076 1044.23 279.692 1276.01C545.476 1507.79 809.34 1778.07 933.955 2134.85C1070.52 2526.08 1016.68 2953.24 1075.65 3363.71C1134.74 3775.38 1306.83 4163.43 1564.81 4466.71C1822.79 4769.99 2152 4971.27 2500.57 5038.84L3141.26 4671.52Z" fill="#5238DF"/>
<path d="M3784.53 4303.33C3520.43 4331.43 3232.98 4175.52 3024 3945.76C2961.97 3877.19 2904.74 3802.77 2852.98 3723.36C2730.97 3537.45 2636.06 3326.54 2554.51 3111.36C2486.35 2930.1 2425.79 2745.6 2373.09 2558.58C2324.13 2386.52 2281.18 2215.23 2230.69 2048.61C2162.03 1820.65 2078.6 1601.18 1951.88 1406.75C1885.03 1304.72 1807.98 1212.26 1722.65 1131.65C1550.23 968.391 1348.93 850.815 1146.62 748.735C1080.21 715.341 1014 682.897 947.358 650.334C710.48 533.979 472.125 412.255 270.05 224.572C241.856 198.442 214.502 170.853 187.988 141.805C-28.1634 -96.1571 -179.664 -441.322 -128.517 -759.654L-376.835 -649.665C-470.121 -350.24 -360.669 10.2479 -172.742 277.77C-149.815 310.38 -125.802 341.574 -100.703 371.351C79.6699 585.492 302.45 738.972 526.13 887.142C588.779 928.66 651.593 969.859 713.767 1011.9C903.553 1140.26 1092.43 1284.86 1246.14 1468.05C1322.78 1558.66 1389.25 1660.38 1443.67 1770.32C1546.6 1980.93 1595.89 2210.05 1635.34 2444.33C1664.32 2614.91 1688.18 2788.3 1725.08 2960.81C1765.07 3148.1 1820.58 3331.72 1890.77 3508.93C1974.34 3719.34 2079.32 3920.2 2209.62 4094.4C2264.92 4168.64 2324.96 4237.85 2389.11 4301.34C2604.69 4514.13 2878.27 4658.51 3143.67 4670.42L3784.53 4303.33Z" fill="#B829EC"/>
<path d="M4428.04 3935.18C4164.89 4003.15 3863.45 3835.71 3661.05 3589.08C3601.07 3515.41 3546.63 3435.79 3498.46 3351.28C3384.82 3153.88 3300.03 2932.9 3220.38 2713.02C3153.33 2527.54 3088.63 2339.85 3023.19 2155.52C2962.12 1983.82 2899.99 1814.56 2828 1652.02C2730.1 1430.29 2612.62 1220.5 2461.98 1042.1C2382.7 948.291 2294.95 865.127 2200.61 794.385C2009.49 650.875 1795.55 560.431 1580.64 484.621C1510.2 459.899 1440.06 436.534 1369.81 412.626C1119.45 327.987 865.801 238.081 641.659 77.1223C610.311 54.6002 579.606 30.614 549.543 5.16375C305.187 -203.345 111.556 -533.071 121.047 -870.378L-127.363 -760.367C-178.766 -441.947 -27.2403 -96.815 189.219 141.186C215.693 170.199 243.055 197.791 271.307 223.96C473.445 411.657 711.653 533.434 948.836 649.746C1015.11 682.394 1081.95 714.707 1148.16 748.15C1350.54 850.235 1551.91 967.817 1724.38 1131.09C1809.74 1211.7 1886.81 1304.17 1953.68 1406.21C2080.44 1600.66 2163.9 1820.15 2232.56 2048.14C2283.11 2214.98 2326.02 2386.08 2375 2558.16C2427.71 2745.2 2488.28 2929.72 2556.46 3111C2638.03 3326.2 2732.96 3537.13 2855.01 3723.06C2906.78 3802.48 2964.03 3876.9 3026.09 3945.48C3235.12 4175.26 3522.69 4331.24 3786.87 4303.06L4428.04 3935.18Z" fill="#EB20DE"/>
<path d="M5071.11 3567.13C4808.85 3675 4493.56 3496.27 4297.62 3232.52C4101.69 2968.77 3996.52 2635.42 3885.86 2314.69C3759.36 1948.02 3618.61 1583.77 3424.95 1255.42C3231.28 927.078 2980.43 634.285 2679 457.005C2400.24 293.066 2093.23 234.957 1792.45 174.804C1491.68 114.651 1184.12 47.3482 911.303 -131.507C638.48 -310.362 402.683 -624.713 370.214 -981.439L121.727 -871.407C112.239 -533.989 305.918 -204.228 550.454 4.27611C580.497 29.782 611.211 53.7702 642.595 76.2409C866.799 237.213 1120.52 327.123 1370.95 411.766C1441.17 435.404 1511.72 458.968 1581.84 483.764C1796.91 559.485 2010.69 649.982 2201.86 793.505C2296.21 864.262 2383.96 947.437 2463.25 1041.26C2613.92 1219.67 2731.44 1429.49 2829.36 1651.24C2901.31 1813.52 2963.48 1982.95 3024.58 2154.8C3090.04 2339.15 3154.76 2526.86 3221.83 2712.36C3301.38 2932.29 3386.32 3153.34 3499.97 3350.7C3548.02 3435.22 3602.34 3514.88 3662.2 3588.61C3864.97 3835.62 4166.4 4002.66 4429.87 3934.63L5071.11 3567.13Z" fill="url(#paint0_linear_308_111)"/>
<defs>
<linearGradient id="paint0_linear_308_111" x1="449.45" y1="-1686.81" x2="4914.81" y2="3287.3" gradientUnits="userSpaceOnUse">
<stop offset="0.12" stop-color="#FC678E"/>
<stop offset="0.15" stop-color="#FC618A"/>
<stop offset="0.19" stop-color="#FC507D"/>
<stop offset="0.23" stop-color="#FB3469"/>
<stop offset="0.31" stop-color="#FB3066"/>
<stop offset="0.38" stop-color="#FB245D"/>
<stop offset="0.45" stop-color="#FA114F"/>
<stop offset="0.5" stop-color="#FA0042"/>
<stop offset="0.77" stop-color="#FB3368"/>
<stop offset="0.83" stop-color="#FB2D64"/>
<stop offset="0.91" stop-color="#FB1D57"/>
<stop offset="0.99" stop-color="#FA0243"/>
<stop offset="1" stop-color="#FA0042"/>
</linearGradient>
</defs>
</svg>
