<svg width="41" height="61" viewBox="0 0 41 61" fill="none" xmlns="http://www.w3.org/2000/svg">
<path d="M0.555557 30.7602C0.555557 25.2026 5.06612 20.692 10.6238 20.692H20.692V40.8284H10.6238C5.06612 40.8284 0.555557 36.3179 0.555557 30.7602Z" fill="#A259FF"/>
<path d="M10.6238 60.9649C16.1814 60.9649 20.692 56.4543 20.692 50.8966V40.8284H10.6238C5.06612 40.8284 0.555557 45.339 0.555557 50.8966C0.555557 56.4543 5.06612 60.9649 10.6238 60.9649Z" fill="#0ACF83"/>
<path d="M0.555557 10.6238C0.555557 5.06612 5.06612 0.555557 10.6238 0.555557H20.692V20.692H10.6238C5.06612 20.692 0.555557 16.1814 0.555557 10.6238Z" fill="#F24E1E"/>
<path d="M20.692 0.555557H30.7602C36.3179 0.555557 40.8284 5.06612 40.8284 10.6238C40.8284 16.1814 36.3179 20.692 30.7602 20.692H20.692V0.555557Z" fill="#FF7262"/>
<path d="M40.8284 30.7602C40.8284 36.3179 36.3179 40.8284 30.7602 40.8284C25.2025 40.8284 20.692 36.3179 20.692 30.7602C20.692 25.2026 25.2025 20.692 30.7602 20.692C36.3179 20.692 40.8284 25.2026 40.8284 30.7602Z" fill="#1ABCFE"/>
</svg>
